<svg width="141" height="40" viewBox="0 0 141 40" fill="none" xmlns="http://www.w3.org/2000/svg">
<g clip-path="url(#clip0_163_4289)">
<path d="M129.772 0.00013H11.2347C10.8026 0.00013 10.3757 0.00013 9.94478 0.00213C9.58405 0.00413 9.22618 0.00994 8.86198 0.01483C8.07077 0.0227318 7.28142 0.0818063 6.50079 0.19154C5.72126 0.303663 4.96614 0.515046 4.26099 0.81854C3.55669 1.1246 2.91316 1.5223 2.35373 1.9972C1.79137 2.47077 1.3226 3.01815 0.965439 3.61829C0.607295 4.21724 0.358957 4.85907 0.229002 5.52161C0.0978117 6.18332 0.0272168 6.85265 0.0178512 7.52361C0.00691661 7.83021 0.00576188 8.13783 0 8.44447V31.5587C0.00576188 31.8692 0.00691661 32.17 0.0178512 32.4806C0.0272197 33.1516 0.0978146 33.8209 0.229002 34.4825C0.358599 35.1455 0.606951 35.7877 0.965439 36.3868C1.32243 36.985 1.79127 37.5302 2.35373 38.0011C2.91104 38.4781 3.55499 38.8761 4.26099 39.1798C4.96614 39.4841 5.72117 39.6968 6.50079 39.8106C7.28155 39.9195 8.07082 39.9786 8.86198 39.9874C9.22618 39.9942 9.58405 39.9981 9.94478 39.9981C10.3757 40.0001 10.8026 40.0001 11.2347 40.0001H129.772C130.195 40.0001 130.625 40.0001 131.049 39.9981C131.408 39.9981 131.776 39.9942 132.135 39.9874C132.925 39.9791 133.713 39.92 134.492 39.8106C135.274 39.696 136.032 39.4834 136.74 39.1798C137.446 38.8759 138.089 38.478 138.646 38.0011C139.207 37.5284 139.677 36.9836 140.038 36.3868C140.394 35.7872 140.64 35.1451 140.768 34.4825C140.899 33.8208 140.972 33.1516 140.986 32.4806C140.991 32.17 140.991 31.8692 140.991 31.5587C141 31.1954 141 30.8341 141 30.4649V9.53626C141 9.17005 141 8.80677 140.991 8.44447C140.991 8.13783 140.991 7.83021 140.986 7.52357C140.972 6.85255 140.899 6.18337 140.768 5.52157C140.639 4.85941 140.393 4.21763 140.038 3.61825C139.311 2.41533 138.157 1.43616 136.74 0.81845C136.032 0.515697 135.274 0.30437 134.492 0.19145C133.713 0.0812328 132.925 0.0221378 132.135 0.01469C131.776 0.00981 131.408 0.00395 131.049 0.002C130.625 0 130.195 0 129.772 0V0.00013Z" fill="#A6A6A6"/>
<path d="M9.95067 39.125C9.59167 39.125 9.24134 39.1211 8.88515 39.1143C8.14728 39.1061 7.41113 39.0516 6.68274 38.9512C6.00356 38.8519 5.34562 38.6673 4.73061 38.4033C4.12124 38.1415 3.56545 37.7983 3.08453 37.3867C2.59664 36.98 2.19045 36.5082 1.88206 35.9902C1.57027 35.4688 1.35449 34.9099 1.24225 34.333C1.12103 33.7131 1.05544 33.0863 1.04606 32.458C1.03859 32.2471 1.02881 31.5449 1.02881 31.5449V8.44434C1.02881 8.44434 1.03922 7.75293 1.04612 7.5498C1.0551 6.92248 1.12031 6.29665 1.24116 5.67773C1.35362 5.09925 1.56956 4.53875 1.88152 4.01563C2.18878 3.49794 2.59271 3.02586 3.07766 2.61768C3.56206 2.20562 4.11963 1.8606 4.73003 1.59521C5.34363 1.33209 6.00033 1.14873 6.67814 1.05127C7.40891 0.949836 8.14762 0.894996 8.88805 0.88721L9.95125 0.875H131.043L132.119 0.8877C132.853 0.895099 133.585 0.94945 134.309 1.05029C134.994 1.14898 135.657 1.33362 136.278 1.59814C137.501 2.13299 138.496 2.97916 139.123 4.01807C139.43 4.53758 139.643 5.09351 139.754 5.66699C139.876 6.29099 139.945 6.92174 139.959 7.5542C139.962 7.8374 139.962 8.1416 139.962 8.44434C139.971 8.81934 139.971 9.17627 139.971 9.53613V30.4648C139.971 30.8281 139.971 31.1826 139.962 31.54C139.962 31.8652 139.962 32.1631 139.958 32.4697C139.944 33.0909 139.877 33.7104 139.756 34.3232C139.646 34.9043 139.432 35.4675 139.12 35.9932C138.809 36.5056 138.406 36.9733 137.923 37.3789C137.442 37.7927 136.885 38.1379 136.274 38.4014C135.655 38.6674 134.993 38.8527 134.309 38.9512C133.581 39.0522 132.844 39.1067 132.106 39.1143C131.761 39.1211 131.4 39.125 131.049 39.125L129.772 39.127L9.95067 39.125Z" fill="black"/>
<path d="M29.1852 20.3013C29.1978 19.4666 29.4591 18.6483 29.9446 17.9223C30.43 17.1964 31.124 16.5864 31.9619 16.1492C31.4296 15.5041 30.7274 14.9731 29.9111 14.5986C29.0947 14.224 28.1867 14.0162 27.2591 13.9916C25.2805 13.8153 23.3623 14.9964 22.354 14.9964C21.3262 14.9964 19.7738 14.0091 18.1021 14.0383C17.0208 14.0679 15.967 14.3348 15.0433 14.8128C14.1197 15.2909 13.3577 15.9638 12.8317 16.7661C10.5528 20.1145 12.2526 25.0356 14.4356 27.7422C15.5277 29.0676 16.8041 30.548 18.4743 30.4955C20.1087 30.438 20.7191 29.611 22.6919 29.611C24.6464 29.611 25.2191 30.4955 26.9232 30.4621C28.677 30.438 29.7819 29.1309 30.8357 27.793C31.6205 26.8486 32.2243 25.8049 32.6249 24.7005C31.606 24.3347 30.7365 23.7226 30.1248 22.9403C29.5132 22.158 29.1864 21.2402 29.1852 20.3013Z" fill="white"/>
<path d="M25.9665 12.2113C26.9227 11.2371 27.3938 9.98494 27.2798 8.7207C25.8189 8.85092 24.4694 9.44348 23.5003 10.3803C23.0264 10.838 22.6635 11.3704 22.4323 11.9472C22.2011 12.524 22.106 13.1337 22.1526 13.7417C22.8834 13.7481 23.6062 13.6137 24.2669 13.3486C24.9275 13.0835 25.5086 12.6946 25.9665 12.2113Z" fill="white"/>
<path d="M49.8445 27.1397H44.2672L42.9278 30.4961H40.5654L45.8482 18.0781H48.3026L53.5854 30.4961H51.1828L49.8445 27.1397ZM44.8448 25.5908H49.2658L47.0864 20.1436H47.0254L44.8448 25.5908Z" fill="white"/>
<path d="M64.9943 25.9695C64.9943 28.7829 63.2199 30.5905 60.5423 30.5905C59.864 30.6207 59.1894 30.4881 58.5958 30.2079C58.0022 29.9278 57.5135 29.5114 57.1857 29.0065H57.1351V33.4909H54.9453V21.4421H57.0649V22.948H57.1052C57.448 22.4455 57.9449 22.0313 58.5431 21.7495C59.1412 21.4676 59.8182 21.3287 60.502 21.3474C63.2095 21.3474 64.9943 23.1638 64.9943 25.9695ZM62.7435 25.9695C62.7435 24.1365 61.6273 22.9314 59.9243 22.9314C58.2513 22.9314 57.1259 24.1618 57.1259 25.9695C57.1259 27.7937 58.2513 29.0154 59.9243 29.0154C61.6274 29.0154 62.7435 27.8191 62.7435 25.9695Z" fill="white"/>
<path d="M76.7359 25.9694C76.7359 28.7829 74.9616 30.5905 72.284 30.5905C71.6057 30.6206 70.9311 30.488 70.3375 30.2079C69.7439 29.9278 69.2552 29.5114 68.9274 29.0065H68.8768V33.4909H66.687V21.4421H68.8066V22.948H68.8468C69.1897 22.4455 69.6866 22.0313 70.2847 21.7495C70.8829 21.4676 71.5599 21.3287 72.2437 21.3474C74.9512 21.3474 76.7359 23.1638 76.7359 25.9694ZM74.4852 25.9694C74.4852 24.1364 73.369 22.9314 71.666 22.9314C69.993 22.9314 68.8676 24.1618 68.8676 25.9694C68.8676 27.7937 69.993 29.0153 71.666 29.0153C73.3691 29.0153 74.4852 27.8191 74.4852 25.9694H74.4852Z" fill="white"/>
<path d="M84.496 27.0362C84.6582 28.2676 86.0678 29.0762 87.994 29.0762C89.8397 29.0762 91.1676 28.2676 91.1676 27.1572C91.1676 26.1934 90.3667 25.6162 88.4704 25.2207L86.5741 24.833C83.8873 24.2822 82.6399 23.2158 82.6399 21.4854C82.6399 19.3428 84.84 17.8711 87.9641 17.8711C91.056 17.8711 93.1756 19.3428 93.2469 21.4854H91.0364C90.9041 20.2461 89.697 19.4981 87.933 19.4981C86.169 19.4981 84.962 20.2549 84.962 21.3565C84.962 22.2344 85.7329 22.751 87.6189 23.1465L89.231 23.4824C92.2331 24.0849 93.4805 25.1084 93.4805 26.9248C93.4805 29.248 91.2999 30.7031 87.8318 30.7031C84.5868 30.7031 82.3959 29.2822 82.2544 27.0361L84.496 27.0362Z" fill="white"/>
<path d="M98.2068 19.2998V21.4424H100.235V22.9141H98.2068V27.9053C98.2068 28.6807 98.613 29.042 99.5048 29.042C99.7456 29.0384 99.986 29.0241 100.225 28.999V30.4619C99.8241 30.5255 99.4166 30.5543 99.0088 30.5478C96.849 30.5478 96.0067 29.8593 96.0067 28.1035V22.9141H94.4556V21.4424H96.0067V19.2998H98.2068Z" fill="white"/>
<path d="M101.41 25.9697C101.41 23.1211 103.387 21.3311 106.47 21.3311C109.563 21.3311 111.53 23.1211 111.53 25.9697C111.53 28.8262 109.573 30.6084 106.47 30.6084C103.367 30.6084 101.41 28.8262 101.41 25.9697ZM109.299 25.9697C109.299 24.0156 108.244 22.8623 106.47 22.8623C104.695 22.8623 103.641 24.0244 103.641 25.9697C103.641 27.9316 104.695 29.0762 106.47 29.0762C108.244 29.0762 109.299 27.9316 109.299 25.9697H109.299Z" fill="white"/>
<path d="M113.336 21.442H115.424V22.983H115.475C115.616 22.5017 115.949 22.0764 116.416 21.7785C116.883 21.4806 117.457 21.3284 118.041 21.3473C118.293 21.3465 118.545 21.3698 118.791 21.4166V23.1549C118.473 23.0723 118.14 23.0343 117.807 23.0426C117.489 23.0316 117.172 23.0792 116.878 23.1821C116.583 23.285 116.319 23.4408 116.102 23.6386C115.885 23.8365 115.721 24.0719 115.622 24.3286C115.523 24.5852 115.49 24.8571 115.526 25.1256V30.4957H113.336L113.336 21.442Z" fill="white"/>
<path d="M128.887 27.8369C128.593 29.4805 126.707 30.6084 124.294 30.6084C121.19 30.6084 119.264 28.8437 119.264 26.0127C119.264 23.1729 121.201 21.3311 124.202 21.3311C127.153 21.3311 129.009 23.0518 129.009 25.7969V26.4336H121.475V26.5459C121.44 26.8791 121.489 27.2148 121.619 27.5306C121.749 27.8464 121.956 28.1352 122.228 28.3778C122.499 28.6203 122.828 28.8111 123.193 28.9374C123.558 29.0637 123.951 29.1226 124.344 29.1103C124.862 29.1515 125.381 29.0498 125.825 28.8203C126.269 28.5909 126.614 28.246 126.808 27.8369L128.887 27.8369ZM121.485 25.1348H126.818C126.838 24.8352 126.785 24.5354 126.661 24.2541C126.538 23.9729 126.347 23.7164 126.102 23.5006C125.856 23.2849 125.56 23.1145 125.233 23.0003C124.906 22.8861 124.555 22.8305 124.202 22.8369C123.845 22.8351 123.492 22.8933 123.162 23.008C122.832 23.1227 122.532 23.2918 122.279 23.5054C122.027 23.7191 121.826 23.973 121.69 24.2527C121.554 24.5323 121.484 24.8321 121.485 25.1348V25.1348Z" fill="white"/>
<path d="M44.5703 8.7304C45.0294 8.70244 45.4901 8.7613 45.9191 8.90274C46.3481 9.04417 46.7348 9.26465 47.0513 9.54828C47.3678 9.8319 47.6061 10.1716 47.7492 10.5429C47.8922 10.9141 47.9364 11.3077 47.8785 11.6952C47.8785 13.6015 46.6646 14.6972 44.5703 14.6972H42.0308V8.7304H44.5703ZM43.1228 13.8534H44.4483C44.7764 13.87 45.1047 13.8244 45.4093 13.7198C45.7139 13.6152 45.9873 13.4542 46.2094 13.2487C46.4315 13.0431 46.5968 12.7981 46.6932 12.5315C46.7897 12.2648 46.8149 11.9833 46.767 11.7074C46.8114 11.4326 46.7836 11.1528 46.6857 10.8881C46.5878 10.6235 46.4221 10.3805 46.2005 10.1765C45.9789 9.97261 45.7069 9.8128 45.404 9.70856C45.101 9.60433 44.7747 9.55824 44.4483 9.57361H43.1228V13.8534Z" fill="white"/>
<path d="M49.1119 12.4438C49.0786 12.1479 49.1185 11.8493 49.229 11.5672C49.3396 11.2852 49.5184 11.0258 49.754 10.8059C49.9896 10.5859 50.2768 10.4101 50.5971 10.2898C50.9174 10.1696 51.2638 10.1074 51.6141 10.1074C51.9644 10.1074 52.3108 10.1696 52.6311 10.2898C52.9514 10.4101 53.2386 10.5859 53.4742 10.8059C53.7098 11.0258 53.8886 11.2852 53.9992 11.5672C54.1097 11.8493 54.1496 12.1479 54.1163 12.4438C54.1502 12.74 54.1108 13.039 54.0005 13.3215C53.8903 13.6041 53.7116 13.8639 53.4759 14.0843C53.2403 14.3047 52.9529 14.4808 52.6322 14.6014C52.3116 14.7219 51.9648 14.7842 51.6141 14.7842C51.2634 14.7842 50.9166 14.7219 50.5959 14.6014C50.2753 14.4808 49.9879 14.3047 49.7523 14.0843C49.5166 13.8639 49.3379 13.6041 49.2276 13.3215C49.1174 13.039 49.0779 12.74 49.1119 12.4438ZM53.0392 12.4438C53.0392 11.4677 52.5225 10.8969 51.6158 10.8969C50.7056 10.8969 50.1936 11.4677 50.1936 12.4438C50.1936 13.4277 50.7057 13.9941 51.6158 13.9941C52.5226 13.9941 53.0392 13.4238 53.0392 12.4438H53.0392Z" fill="white"/>
<path d="M60.7686 14.6973H59.6824L58.5858 11.3809H58.503L57.411 14.6973H56.3351L54.8726 10.1943H55.9346L56.8851 13.6303H56.9634L58.0542 10.1943H59.0587L60.1496 13.6303H60.2324L61.1783 10.1943H62.2254L60.7686 14.6973Z" fill="white"/>
<path d="M63.4551 10.1939H64.4631V10.9092H64.5413C64.6741 10.6523 64.8979 10.4369 65.1818 10.2931C65.4656 10.1493 65.7952 10.0842 66.1247 10.107C66.3828 10.0905 66.6421 10.1235 66.8831 10.2036C67.1242 10.2837 67.341 10.4088 67.5173 10.5697C67.6937 10.7305 67.8252 10.923 67.902 11.1328C67.9788 11.3426 67.999 11.5644 67.9611 11.7818V14.6968H66.914V12.0049C66.914 11.2813 66.5435 10.9214 65.7691 10.9214C65.5938 10.9145 65.4188 10.9398 65.2562 10.9957C65.0935 11.0515 64.947 11.1365 64.8266 11.2449C64.7063 11.3533 64.615 11.4825 64.559 11.6236C64.503 11.7647 64.4836 11.9145 64.5022 12.0625V14.6968H63.4551L63.4551 10.1939Z" fill="white"/>
<path d="M69.6299 8.43652H70.677V14.6973H69.6299V8.43652Z" fill="white"/>
<path d="M72.1324 12.4439C72.0991 12.1479 72.139 11.8494 72.2496 11.5673C72.3602 11.2852 72.539 11.0259 72.7747 10.8059C73.0103 10.5859 73.2975 10.4101 73.6178 10.2898C73.9381 10.1696 74.2846 10.1074 74.6349 10.1074C74.9852 10.1074 75.3316 10.1696 75.6519 10.2898C75.9723 10.4101 76.2595 10.5859 76.4951 10.8059C76.7307 11.0259 76.9095 11.2852 77.0201 11.5673C77.1307 11.8494 77.1706 12.1479 77.1373 12.4439C77.1713 12.7401 77.1318 13.0391 77.0215 13.3216C76.9112 13.6042 76.7324 13.864 76.4968 14.0844C76.2611 14.3048 75.9737 14.4809 75.653 14.6014C75.3324 14.722 74.9856 14.7842 74.6349 14.7842C74.2842 14.7842 73.9373 14.722 73.6167 14.6014C73.296 14.4809 73.0086 14.3048 72.773 14.0844C72.5373 13.864 72.3585 13.6042 72.2482 13.3216C72.1379 13.0391 72.0985 12.7401 72.1324 12.4439ZM76.0597 12.4439C76.0597 11.4678 75.543 10.897 74.6363 10.897C73.7261 10.897 73.2141 11.4678 73.2141 12.4439C73.2141 13.4278 73.7261 13.9942 74.6363 13.9942C75.543 13.9942 76.0597 13.4239 76.0597 12.4439H76.0597Z" fill="white"/>
<path d="M78.2397 13.4238C78.2397 12.6133 78.9509 12.146 80.2132 12.0796L81.6504 12.0093V11.6206C81.6504 11.145 81.2798 10.8765 80.5641 10.8765C79.9796 10.8765 79.5745 11.0586 79.4583 11.377H78.4446C78.5516 10.6035 79.4088 10.1074 80.6125 10.1074C81.9426 10.1074 82.6929 10.6694 82.6929 11.6206V14.6973H81.6849V14.0645H81.602C81.4339 14.2914 81.1977 14.4765 80.9178 14.6007C80.6378 14.7249 80.3239 14.7838 80.0083 14.7715C79.7856 14.7911 79.5605 14.7709 79.3475 14.7122C79.1345 14.6536 78.9384 14.5576 78.7717 14.4307C78.6051 14.3037 78.4717 14.1485 78.38 13.9751C78.2884 13.8017 78.2406 13.6139 78.2397 13.4238ZM81.6504 13.0391V12.6626L80.3547 12.7329C79.624 12.7744 79.2926 12.9853 79.2926 13.3823C79.2926 13.7876 79.7069 14.0234 80.2765 14.0234C80.4434 14.0378 80.612 14.0235 80.7722 13.9814C80.9325 13.9393 81.0811 13.8703 81.2093 13.7784C81.3375 13.6866 81.4426 13.5738 81.5184 13.4468C81.5941 13.3198 81.639 13.1811 81.6504 13.0391Z" fill="white"/>
<path d="M84.0693 12.4439C84.0693 11.021 84.9312 10.1196 86.2717 10.1196C86.6033 10.1067 86.9324 10.1741 87.2206 10.314C87.5087 10.4539 87.7439 10.6605 87.8988 10.9096H87.9771V8.43652H89.0242V14.6973H88.0208V13.9858H87.9379C87.7711 14.2333 87.5276 14.4374 87.2339 14.5758C86.9402 14.7143 86.6075 14.782 86.2718 14.7715C84.922 14.7715 84.0693 13.8701 84.0693 12.4439ZM85.151 12.4439C85.151 13.3989 85.6815 13.9737 86.5687 13.9737C87.4512 13.9737 87.9966 13.3907 87.9966 12.4478C87.9966 11.5093 87.4455 10.918 86.5687 10.918C85.6872 10.918 85.151 11.4966 85.151 12.4439H85.151Z" fill="white"/>
<path d="M93.3566 12.4438C93.3232 12.1479 93.3631 11.8493 93.4737 11.5672C93.5842 11.2852 93.7631 11.0258 93.9986 10.8059C94.2342 10.5859 94.5214 10.4101 94.8417 10.2898C95.162 10.1696 95.5084 10.1074 95.8587 10.1074C96.209 10.1074 96.5554 10.1696 96.8757 10.2898C97.196 10.4101 97.4832 10.5859 97.7188 10.8059C97.9544 11.0258 98.1332 11.2852 98.2438 11.5672C98.3543 11.8493 98.3942 12.1479 98.3609 12.4438C98.3949 12.74 98.3555 13.039 98.2452 13.3215C98.1349 13.6041 97.9562 13.8639 97.7205 14.0843C97.4849 14.3047 97.1975 14.4808 96.8769 14.6014C96.5562 14.7219 96.2094 14.7842 95.8587 14.7842C95.508 14.7842 95.1612 14.7219 94.8406 14.6014C94.5199 14.4808 94.2326 14.3047 93.9969 14.0843C93.7612 13.8639 93.5825 13.6041 93.4723 13.3215C93.362 13.039 93.3226 12.74 93.3566 12.4438ZM97.2838 12.4438C97.2838 11.4677 96.7672 10.8969 95.8604 10.8969C94.9503 10.8969 94.4382 11.4677 94.4382 12.4438C94.4382 13.4277 94.9503 13.9941 95.8604 13.9941C96.7672 13.9941 97.2838 13.4238 97.2838 12.4438Z" fill="white"/>
<path d="M99.7656 10.1939H100.774V10.9092H100.852C100.985 10.6523 101.208 10.4369 101.492 10.2931C101.776 10.1493 102.106 10.0842 102.435 10.107C102.693 10.0905 102.953 10.1235 103.194 10.2036C103.435 10.2837 103.652 10.4088 103.828 10.5697C104.004 10.7305 104.136 10.923 104.213 11.1328C104.289 11.3426 104.31 11.5644 104.272 11.7818V14.6968H103.225V12.0049C103.225 11.2813 102.854 10.9214 102.08 10.9214C101.904 10.9145 101.729 10.9398 101.567 10.9957C101.404 11.0515 101.258 11.1365 101.137 11.2449C101.017 11.3533 100.926 11.4825 100.87 11.6236C100.814 11.7647 100.794 11.9145 100.813 12.0625V14.6968H99.7656V10.1939Z" fill="white"/>
<path d="M110.188 9.07324V10.2148H111.338V10.9634H110.188V13.2788C110.188 13.7505 110.417 13.957 110.939 13.957C111.072 13.9567 111.205 13.9498 111.338 13.9365V14.6768C111.15 14.7053 110.959 14.7205 110.768 14.7222C109.604 14.7222 109.14 14.3745 109.14 13.5063V10.9633H108.298V10.2148H109.14V9.07324H110.188Z" fill="white"/>
<path d="M112.769 8.43652H113.806V10.918H113.889C114.029 10.6587 114.259 10.4421 114.548 10.2977C114.838 10.1534 115.172 10.0883 115.507 10.1113C115.764 10.0995 116.021 10.1359 116.259 10.2179C116.497 10.2999 116.711 10.4256 116.886 10.586C117.061 10.7463 117.191 10.9373 117.269 11.1455C117.346 11.3536 117.369 11.5737 117.334 11.79V14.6973H116.286V12.0093C116.286 11.29 115.892 10.9258 115.152 10.9258C114.972 10.9132 114.791 10.9342 114.621 10.9873C114.452 11.0404 114.298 11.1242 114.171 11.2329C114.044 11.3417 113.946 11.4727 113.885 11.6168C113.823 11.761 113.8 11.9147 113.816 12.0674V14.6973H112.769L112.769 8.43652Z" fill="white"/>
<path d="M123.44 13.4815C123.297 13.8931 122.989 14.249 122.569 14.4872C122.149 14.7253 121.643 14.8305 121.141 14.7842C120.791 14.7921 120.444 14.7353 120.123 14.6177C119.801 14.5002 119.514 14.3248 119.281 14.1036C119.048 13.8825 118.874 13.6209 118.772 13.3371C118.67 13.0533 118.642 12.754 118.69 12.46C118.643 12.1652 118.672 11.8652 118.774 11.5805C118.876 11.2959 119.048 11.0331 119.28 10.81C119.512 10.587 119.798 10.4088 120.118 10.2876C120.438 10.1664 120.785 10.105 121.136 10.1075C122.612 10.1075 123.503 10.9635 123.503 12.3775V12.6876H119.756V12.7374C119.74 12.9026 119.764 13.069 119.828 13.2257C119.892 13.3825 119.994 13.5262 120.127 13.6476C120.26 13.7691 120.421 13.8656 120.601 13.931C120.78 13.9964 120.974 14.0292 121.169 14.0274C121.42 14.0529 121.674 14.0146 121.898 13.9174C122.123 13.8202 122.309 13.6685 122.432 13.4815L123.44 13.4815ZM119.756 12.0303H122.436C122.449 11.8792 122.425 11.7274 122.365 11.5847C122.305 11.442 122.211 11.3115 122.088 11.2016C121.965 11.0918 121.816 11.005 121.651 10.9468C121.486 10.8886 121.309 10.8604 121.13 10.8638C120.949 10.8619 120.769 10.8908 120.602 10.9487C120.434 11.0067 120.281 11.0925 120.153 11.2012C120.025 11.3099 119.924 11.4393 119.856 11.5817C119.788 11.7241 119.754 11.8766 119.756 12.0303H119.756Z" fill="white"/>
</g>
<defs>
<clipPath id="clip0_163_4289">
<rect width="141" height="40" fill="white"/>
</clipPath>
</defs>
</svg>
