<svg width="10" height="16" viewBox="0 0 10 16" fill="none" xmlns="http://www.w3.org/2000/svg">
<path fill-rule="evenodd" clip-rule="evenodd" d="M4.92257 0C5.06761 0 5.20671 0.057617 5.30926 0.160176C5.41182 0.262735 5.46944 0.401835 5.46944 0.546875V13.4455L8.91038 10.0034C9.01307 9.90075 9.15234 9.84306 9.29757 9.84306C9.44279 9.84306 9.58206 9.90075 9.68475 10.0034C9.78744 10.1061 9.84513 10.2454 9.84513 10.3906C9.84513 10.5358 9.78744 10.6751 9.68475 10.7778L5.30975 15.1528C5.25895 15.2037 5.1986 15.2441 5.13216 15.2717C5.06572 15.2993 4.9945 15.3135 4.92257 15.3135C4.85063 15.3135 4.77941 15.2993 4.71297 15.2717C4.64653 15.2441 4.58618 15.2037 4.53538 15.1528L0.160378 10.7778C0.0576897 10.6751 -3.42158e-09 10.5358 0 10.3906C3.42158e-09 10.2454 0.0576897 10.1061 0.160378 10.0034C0.263067 9.90075 0.402342 9.84306 0.547566 9.84306C0.692789 9.84306 0.832065 9.90075 0.934753 10.0034L4.37569 13.4455V0.546875C4.37569 0.401835 4.43331 0.262735 4.53587 0.160176C4.63843 0.057617 4.77753 0 4.92257 0V0Z" fill="#21272A"/>
</svg>
