<svg width="143" height="40" viewBox="0 0 143 40" fill="none" xmlns="http://www.w3.org/2000/svg">
<g clip-path="url(#clip0_163_4324)">
<path d="M137.704 0H5.2963C2.37123 0 0 2.23858 0 5V35C0 37.7614 2.37123 40 5.2963 40H137.704C140.629 40 143 37.7614 143 35V5C143 2.23858 140.629 0 137.704 0Z" fill="black"/>
<path d="M137.704 0.8C138.884 0.8 140.015 1.2425 140.85 2.03015C141.684 2.8178 142.153 3.88609 142.153 5V35C142.153 36.1139 141.684 37.1822 140.85 37.9698C140.015 38.7575 138.884 39.2 137.704 39.2H5.2963C4.11638 39.2 2.98479 38.7575 2.15046 37.9698C1.31613 37.1822 0.847408 36.1139 0.847408 35V5C0.847408 3.88609 1.31613 2.8178 2.15046 2.03015C2.98479 1.2425 4.11638 0.8 5.2963 0.8H137.704ZM137.704 0H5.2963C3.89163 0 2.5445 0.526784 1.55125 1.46447C0.558001 2.40215 0 3.67392 0 5V35C0 36.3261 0.558001 37.5979 1.55125 38.5355C2.5445 39.4732 3.89163 40 5.2963 40H137.704C139.108 40 140.456 39.4732 141.449 38.5355C142.442 37.5979 143 36.3261 143 35V5C143 3.67392 142.442 2.40215 141.449 1.46447C140.456 0.526784 139.108 0 137.704 0Z" fill="#A6A6A6"/>
<path d="M46.8054 10.4858H48.8963V13.3869C48.5826 13.4933 48.2594 13.5724 47.9266 13.6242C47.5965 13.676 47.2269 13.702 46.8177 13.702C46.1957 13.702 45.6706 13.5778 45.2424 13.3296C44.8168 13.0814 44.4936 12.7281 44.2726 12.2698C44.0516 11.8088 43.9412 11.2619 43.9412 10.629C43.9412 10.0098 44.0626 9.46967 44.3053 9.00866C44.5508 8.54765 44.9041 8.1903 45.3651 7.93661C45.8288 7.68019 46.3853 7.55198 47.0346 7.55198C47.3674 7.55198 47.6824 7.58335 47.9798 7.64609C48.2798 7.70611 48.5581 7.79203 48.8145 7.90388L48.5485 8.50946C48.3276 8.41399 48.0834 8.33215 47.8161 8.26396C47.5515 8.19576 47.2773 8.16166 46.9936 8.16166C46.5054 8.16166 46.0866 8.26259 45.7375 8.46445C45.391 8.66632 45.1251 8.95138 44.9396 9.31964C44.7568 9.6879 44.6654 10.1244 44.6654 10.629C44.6654 11.1282 44.7459 11.5633 44.9068 11.9343C45.0678 12.3026 45.3187 12.589 45.6597 12.7936C46.0007 12.9982 46.4399 13.1005 46.9773 13.1005C47.2473 13.1005 47.4792 13.0855 47.6729 13.0554C47.8666 13.0227 48.0425 12.9845 48.2007 12.9409V11.1078H46.8054V10.4858ZM53.6755 13.6201H50.3448V7.63791H53.6755V8.25168H51.0404V10.1871H53.5242V10.7927H51.0404V13.0063H53.6755V13.6201ZM56.8385 13.6201H56.1388V8.25168H54.2566V7.63791H58.7125V8.25168H56.8385V13.6201ZM61.7937 13.6201V7.63791H62.4893V13.6201H61.7937ZM65.9714 13.6201H65.2717V8.25168H63.3895V7.63791H67.8454V8.25168H65.9714V13.6201ZM76.115 10.6208C76.115 11.0818 76.0563 11.5019 75.939 11.8811C75.8217 12.2575 75.6471 12.5822 75.4153 12.855C75.1861 13.125 74.9011 13.3337 74.5601 13.481C74.2191 13.6283 73.8236 13.702 73.3735 13.702C72.9097 13.702 72.5046 13.6283 72.1582 13.481C71.8145 13.3337 71.5281 13.1236 71.2989 12.8509C71.0725 12.5781 70.902 12.2521 70.7874 11.8729C70.6756 11.4937 70.6197 11.0737 70.6197 10.6126C70.6197 10.0016 70.7206 9.46558 70.9225 9.00457C71.1243 8.54356 71.4299 8.18485 71.839 7.92843C72.2509 7.67201 72.7665 7.5438 73.3857 7.5438C73.9777 7.5438 74.4755 7.67064 74.8792 7.92434C75.2857 8.17803 75.5926 8.53538 75.7999 8.99639C76.0099 9.45467 76.115 9.99615 76.115 10.6208ZM71.3521 10.6208C71.3521 11.1282 71.4244 11.5674 71.569 11.9384C71.7136 12.3094 71.9345 12.5958 72.2318 12.7977C72.5319 12.9995 72.9124 13.1005 73.3735 13.1005C73.8372 13.1005 74.2164 12.9995 74.511 12.7977C74.8083 12.5958 75.0279 12.3094 75.1698 11.9384C75.3116 11.5674 75.3825 11.1282 75.3825 10.6208C75.3825 9.84884 75.2202 9.24599 74.8956 8.81226C74.5737 8.3758 74.0704 8.15757 73.3857 8.15757C72.922 8.15757 72.5401 8.25714 72.24 8.45627C71.94 8.6554 71.7163 8.9391 71.569 9.30736C71.4244 9.6729 71.3521 10.1107 71.3521 10.6208ZM82.1258 13.6201H81.3238L78.0627 8.59539H78.0299C78.0381 8.72906 78.0477 8.88182 78.0586 9.05367C78.0695 9.2228 78.0777 9.4042 78.0831 9.59788C78.0913 9.78883 78.0954 9.98387 78.0954 10.183V13.6201H77.4489V7.63791H78.2468L81.4957 12.6463H81.5243C81.5189 12.5508 81.512 12.4158 81.5039 12.2412C81.4957 12.0639 81.4875 11.8743 81.4793 11.6724C81.4739 11.4678 81.4711 11.2782 81.4711 11.1037V7.63791H82.1258V13.6201Z" fill="white"/>
<path d="M46.8054 10.4858V10.3858H46.7054V10.4858H46.8054ZM48.8963 10.4858H48.9963V10.3858H48.8963V10.4858ZM48.8963 13.3869L48.9284 13.4816L48.9963 13.4586V13.3869H48.8963ZM47.9266 13.6242L47.9112 13.5254L47.9111 13.5254L47.9266 13.6242ZM45.2424 13.3296L45.192 13.416L45.1922 13.4161L45.2424 13.3296ZM44.2726 12.2698L44.1824 12.313L44.1825 12.3133L44.2726 12.2698ZM44.3053 9.00866L44.2171 8.96166L44.2169 8.96207L44.3053 9.00866ZM45.3651 7.93661L45.4133 8.02422L45.4135 8.02412L45.3651 7.93661ZM47.9798 7.64609L47.9591 7.74394L47.9602 7.74415L47.9798 7.64609ZM48.8145 7.90388L48.9061 7.94409L48.9464 7.8523L48.8545 7.81222L48.8145 7.90388ZM48.5485 8.50946L48.5089 8.60126L48.6001 8.64069L48.6401 8.54967L48.5485 8.50946ZM47.8161 8.26396L47.7911 8.36079L47.7914 8.36085L47.8161 8.26396ZM45.7375 8.46445L45.6874 8.37788L45.6871 8.37805L45.7375 8.46445ZM44.9396 9.31964L44.8502 9.27465L44.85 9.27518L44.9396 9.31964ZM44.9068 11.9343L44.8151 11.9741L44.8152 11.9743L44.9068 11.9343ZM45.6597 12.7936L45.6083 12.8793L45.6597 12.7936ZM47.6729 13.0554L47.6882 13.1543L47.6895 13.1541L47.6729 13.0554ZM48.2007 12.9409L48.2273 13.0373L48.3007 13.017V12.9409H48.2007ZM48.2007 11.1078H48.3007V11.0078H48.2007V11.1078ZM46.8054 11.1078H46.7054V11.2078H46.8054V11.1078ZM46.8054 10.4858V10.5858H48.8963V10.4858V10.3858H46.8054V10.4858ZM48.8963 10.4858H48.7963V13.3869H48.8963H48.9963V10.4858H48.8963ZM48.8963 13.3869L48.8642 13.2922C48.556 13.3967 48.2384 13.4744 47.9112 13.5254L47.9266 13.6242L47.942 13.723C48.2803 13.6703 48.6092 13.5899 48.9284 13.4816L48.8963 13.3869ZM47.9266 13.6242L47.9111 13.5254C47.5871 13.5763 47.2228 13.602 46.8177 13.602V13.702V13.802C47.231 13.802 47.6059 13.7758 47.9421 13.723L47.9266 13.6242ZM46.8177 13.702V13.602C46.2089 13.602 45.7021 13.4805 45.2925 13.2431L45.2424 13.3296L45.1922 13.4161C45.6392 13.6752 46.1826 13.802 46.8177 13.802V13.702ZM45.2424 13.3296L45.2927 13.2432C44.885 13.0054 44.5753 12.6673 44.3627 12.2264L44.2726 12.2698L44.1825 12.3133C44.4118 12.7889 44.7486 13.1574 45.192 13.416L45.2424 13.3296ZM44.2726 12.2698L44.3628 12.2266C44.1496 11.7819 44.0412 11.2504 44.0412 10.629H43.9412H43.8412C43.8412 11.2734 43.9536 11.8357 44.1824 12.313L44.2726 12.2698ZM43.9412 10.629H44.0412C44.0412 10.023 44.1599 9.49943 44.3938 9.05526L44.3053 9.00866L44.2169 8.96207C43.9652 9.43992 43.8412 9.9966 43.8412 10.629H43.9412ZM44.3053 9.00866L44.3936 9.05567C44.6299 8.61193 44.9692 8.26863 45.4133 8.02422L45.3651 7.93661L45.3169 7.849C44.839 8.11198 44.4718 8.48338 44.2171 8.96166L44.3053 9.00866ZM45.3651 7.93661L45.4135 8.02412C45.8594 7.77755 46.3985 7.65198 47.0346 7.65198V7.55198V7.45198C46.3722 7.45198 45.7983 7.58284 45.3167 7.8491L45.3651 7.93661ZM47.0346 7.55198V7.65198C47.3611 7.65198 47.6692 7.68276 47.9591 7.74394L47.9798 7.64609L48.0004 7.54825C47.6957 7.48395 47.3736 7.45198 47.0346 7.45198V7.55198ZM47.9798 7.64609L47.9602 7.74415C48.2539 7.80289 48.5252 7.8868 48.7745 7.99554L48.8145 7.90388L48.8545 7.81222C48.5909 7.69727 48.3058 7.60932 47.9994 7.54804L47.9798 7.64609ZM48.8145 7.90388L48.7229 7.86367L48.457 8.46925L48.5485 8.50946L48.6401 8.54967L48.9061 7.94409L48.8145 7.90388ZM48.5485 8.50946L48.5882 8.41767C48.3618 8.31982 48.1125 8.23637 47.8408 8.16706L47.8161 8.26396L47.7914 8.36085C48.0543 8.42793 48.2934 8.50815 48.5089 8.60126L48.5485 8.50946ZM47.8161 8.26396L47.8411 8.16712C47.568 8.09674 47.2854 8.06166 46.9936 8.06166V8.16166V8.26166C47.2692 8.26166 47.535 8.29477 47.7911 8.36079L47.8161 8.26396ZM46.9936 8.16166V8.06166C46.4915 8.06166 46.0547 8.16554 45.6874 8.37788L45.7375 8.46445L45.7875 8.55103C46.1186 8.35964 46.5192 8.26166 46.9936 8.26166V8.16166ZM45.7375 8.46445L45.6871 8.37805C45.3235 8.58995 45.0442 8.88962 44.8503 9.27465L44.9396 9.31964L45.0289 9.36462C45.2059 9.01313 45.4586 8.74269 45.7878 8.55086L45.7375 8.46445ZM44.9396 9.31964L44.85 9.27518C44.659 9.66005 44.5654 10.1124 44.5654 10.629H44.6654H44.7654C44.7654 10.1363 44.8546 9.71575 45.0291 9.36409L44.9396 9.31964ZM44.6654 10.629H44.5654C44.5654 11.1388 44.6476 11.588 44.8151 11.9741L44.9068 11.9343L44.9986 11.8945C44.8442 11.5386 44.7654 11.1176 44.7654 10.629H44.6654ZM44.9068 11.9343L44.8152 11.9743C44.9844 12.3614 45.2493 12.6639 45.6083 12.8793L45.6597 12.7936L45.7112 12.7078C45.3882 12.514 45.1512 12.2437 44.9985 11.8943L44.9068 11.9343ZM45.6597 12.7936L45.6083 12.8793C45.9693 13.096 46.4279 13.2005 46.9773 13.2005V13.1005V13.0005C46.4519 13.0005 46.0321 12.9004 45.7112 12.7078L45.6597 12.7936ZM46.9773 13.1005V13.2005C47.2507 13.2005 47.488 13.1853 47.6882 13.1543L47.6729 13.0554L47.6576 12.9566C47.4704 12.9856 47.244 13.0005 46.9773 13.0005V13.1005ZM47.6729 13.0554L47.6895 13.1541C47.8859 13.1209 48.0653 13.082 48.2273 13.0373L48.2007 12.9409L48.1741 12.8445C48.0197 12.8871 47.8472 12.9246 47.6562 12.9568L47.6729 13.0554ZM48.2007 12.9409H48.3007V11.1078H48.2007H48.1007V12.9409H48.2007ZM48.2007 11.1078V11.0078H46.8054V11.1078V11.2078H48.2007V11.1078ZM46.8054 11.1078H46.9054V10.4858H46.8054H46.7054V11.1078H46.8054ZM53.6755 13.6201V13.7201H53.7755V13.6201H53.6755ZM50.3448 13.6201H50.2448V13.7201H50.3448V13.6201ZM50.3448 7.63791V7.53791H50.2448V7.63791H50.3448ZM53.6755 7.63791H53.7755V7.53791H53.6755V7.63791ZM53.6755 8.25168V8.35168H53.7755V8.25168H53.6755ZM51.0404 8.25168V8.15168H50.9404V8.25168H51.0404ZM51.0404 10.1871H50.9404V10.2871H51.0404V10.1871ZM53.5242 10.1871H53.6242V10.0871H53.5242V10.1871ZM53.5242 10.7927V10.8927H53.6242V10.7927H53.5242ZM51.0404 10.7927V10.6927H50.9404V10.7927H51.0404ZM51.0404 13.0063H50.9404V13.1063H51.0404V13.0063ZM53.6755 13.0063H53.7755V12.9063H53.6755V13.0063ZM53.6755 13.6201V13.5201H50.3448V13.6201V13.7201H53.6755V13.6201ZM50.3448 13.6201H50.4448V7.63791H50.3448H50.2448V13.6201H50.3448ZM50.3448 7.63791V7.73791H53.6755V7.63791V7.53791H50.3448V7.63791ZM53.6755 7.63791H53.5755V8.25168H53.6755H53.7755V7.63791H53.6755ZM53.6755 8.25168V8.15168H51.0404V8.25168V8.35168H53.6755V8.25168ZM51.0404 8.25168H50.9404V10.1871H51.0404H51.1404V8.25168H51.0404ZM51.0404 10.1871V10.2871H53.5242V10.1871V10.0871H51.0404V10.1871ZM53.5242 10.1871H53.4242V10.7927H53.5242H53.6242V10.1871H53.5242ZM53.5242 10.7927V10.6927H51.0404V10.7927V10.8927H53.5242V10.7927ZM51.0404 10.7927H50.9404V13.0063H51.0404H51.1404V10.7927H51.0404ZM51.0404 13.0063V13.1063H53.6755V13.0063V12.9063H51.0404V13.0063ZM53.6755 13.0063H53.5755V13.6201H53.6755H53.7755V13.0063H53.6755ZM56.8385 13.6201V13.7201H56.9385V13.6201H56.8385ZM56.1388 13.6201H56.0388V13.7201H56.1388V13.6201ZM56.1388 8.25168H56.2388V8.15168H56.1388V8.25168ZM54.2566 8.25168H54.1566V8.35168H54.2566V8.25168ZM54.2566 7.63791V7.53791H54.1566V7.63791H54.2566ZM58.7125 7.63791H58.8125V7.53791H58.7125V7.63791ZM58.7125 8.25168V8.35168H58.8125V8.25168H58.7125ZM56.8385 8.25168V8.15168H56.7385V8.25168H56.8385ZM56.8385 13.6201V13.5201H56.1388V13.6201V13.7201H56.8385V13.6201ZM56.1388 13.6201H56.2388V8.25168H56.1388H56.0388V13.6201H56.1388ZM56.1388 8.25168V8.15168H54.2566V8.25168V8.35168H56.1388V8.25168ZM54.2566 8.25168H54.3566V7.63791H54.2566H54.1566V8.25168H54.2566ZM54.2566 7.63791V7.73791H58.7125V7.63791V7.53791H54.2566V7.63791ZM58.7125 7.63791H58.6125V8.25168H58.7125H58.8125V7.63791H58.7125ZM58.7125 8.25168V8.15168H56.8385V8.25168V8.35168H58.7125V8.25168ZM56.8385 8.25168H56.7385V13.6201H56.8385H56.9385V8.25168H56.8385ZM61.7937 13.6201H61.6937V13.7201H61.7937V13.6201ZM61.7937 7.63791V7.53791H61.6937V7.63791H61.7937ZM62.4893 7.63791H62.5893V7.53791H62.4893V7.63791ZM62.4893 13.6201V13.7201H62.5893V13.6201H62.4893ZM61.7937 13.6201H61.8937V7.63791H61.7937H61.6937V13.6201H61.7937ZM61.7937 7.63791V7.73791H62.4893V7.63791V7.53791H61.7937V7.63791ZM62.4893 7.63791H62.3893V13.6201H62.4893H62.5893V7.63791H62.4893ZM62.4893 13.6201V13.5201H61.7937V13.6201V13.7201H62.4893V13.6201ZM65.9714 13.6201V13.7201H66.0714V13.6201H65.9714ZM65.2717 13.6201H65.1717V13.7201H65.2717V13.6201ZM65.2717 8.25168H65.3717V8.15168H65.2717V8.25168ZM63.3895 8.25168H63.2895V8.35168H63.3895V8.25168ZM63.3895 7.63791V7.53791H63.2895V7.63791H63.3895ZM67.8454 7.63791H67.9454V7.53791H67.8454V7.63791ZM67.8454 8.25168V8.35168H67.9454V8.25168H67.8454ZM65.9714 8.25168V8.15168H65.8714V8.25168H65.9714ZM65.9714 13.6201V13.5201H65.2717V13.6201V13.7201H65.9714V13.6201ZM65.2717 13.6201H65.3717V8.25168H65.2717H65.1717V13.6201H65.2717ZM65.2717 8.25168V8.15168H63.3895V8.25168V8.35168H65.2717V8.25168ZM63.3895 8.25168H63.4895V7.63791H63.3895H63.2895V8.25168H63.3895ZM63.3895 7.63791V7.73791H67.8454V7.63791V7.53791H63.3895V7.63791ZM67.8454 7.63791H67.7454V8.25168H67.8454H67.9454V7.63791H67.8454ZM67.8454 8.25168V8.15168H65.9714V8.25168V8.35168H67.8454V8.25168ZM65.9714 8.25168H65.8714V13.6201H65.9714H66.0714V8.25168H65.9714ZM75.939 11.8811L76.0345 11.9109L76.0345 11.9107L75.939 11.8811ZM75.4153 12.855L75.3391 12.7902L75.339 12.7903L75.4153 12.855ZM74.5601 13.481L74.5997 13.5728L74.5601 13.481ZM72.1582 13.481L72.1188 13.5729L72.1191 13.573L72.1582 13.481ZM71.2989 12.8509L71.222 12.9147L71.2223 12.9152L71.2989 12.8509ZM70.7874 11.8729L70.6915 11.9012L70.6917 11.9018L70.7874 11.8729ZM71.839 7.92843L71.7862 7.84353L71.7859 7.84369L71.839 7.92843ZM74.8792 7.92434L74.826 8.00901L74.8263 8.00917L74.8792 7.92434ZM75.7999 8.99639L75.7087 9.0374L75.709 9.03805L75.7999 8.99639ZM72.2318 12.7977L72.1757 12.8804L72.176 12.8806L72.2318 12.7977ZM74.511 12.7977L74.4548 12.7149L74.4545 12.7152L74.511 12.7977ZM74.8956 8.81226L74.8151 8.87161L74.8155 8.87218L74.8956 8.81226ZM72.24 8.45627L72.1847 8.37295L72.24 8.45627ZM71.569 9.30736L71.4761 9.27022L71.476 9.27058L71.569 9.30736ZM76.115 10.6208H76.015C76.015 11.0734 75.9574 11.4833 75.8435 11.8516L75.939 11.8811L76.0345 11.9107C76.1552 11.5205 76.215 11.0903 76.215 10.6208H76.115ZM75.939 11.8811L75.8435 11.8514C75.7298 12.2163 75.5614 12.5287 75.3391 12.7902L75.4153 12.855L75.4915 12.9197C75.7329 12.6357 75.9136 12.2988 76.0345 11.9109L75.939 11.8811ZM75.4153 12.855L75.339 12.7903C75.1203 13.048 74.848 13.2477 74.5204 13.3892L74.5601 13.481L74.5997 13.5728C74.9541 13.4197 75.2519 13.202 75.4915 12.9196L75.4153 12.855ZM74.5601 13.481L74.5204 13.3892C74.1943 13.5301 73.8127 13.602 73.3735 13.602V13.702V13.802C73.8344 13.802 74.2439 13.7265 74.5997 13.5728L74.5601 13.481ZM73.3735 13.702V13.602C72.9201 13.602 72.5289 13.5299 72.1973 13.389L72.1582 13.481L72.1191 13.573C72.4804 13.7267 72.8993 13.802 73.3735 13.802V13.702ZM72.1582 13.481L72.1976 13.3891C71.8675 13.2476 71.5941 13.0467 71.3755 12.7865L71.2989 12.8509L71.2223 12.9152C71.4621 13.2005 71.7614 13.4198 72.1188 13.5729L72.1582 13.481ZM71.2989 12.8509L71.3759 12.787C71.1589 12.5256 70.9943 12.2119 70.8832 11.844L70.7874 11.8729L70.6917 11.9018C70.8097 12.2923 70.9861 12.6305 71.222 12.9147L71.2989 12.8509ZM70.7874 11.8729L70.8834 11.8446C70.7746 11.476 70.7197 11.0656 70.7197 10.6126H70.6197H70.5197C70.5197 11.0817 70.5766 11.5115 70.6915 11.9012L70.7874 11.8729ZM70.6197 10.6126H70.7197C70.7197 10.0125 70.8188 9.49064 71.0141 9.04468L70.9225 9.00457L70.8309 8.96446C70.6224 9.44052 70.5197 9.99069 70.5197 10.6126H70.6197ZM70.9225 9.00457L71.0141 9.04468C71.2082 8.60125 71.5007 8.25845 71.8921 8.01316L71.839 7.92843L71.7859 7.84369C71.359 8.11125 71.0404 8.48587 70.8309 8.96446L70.9225 9.00457ZM71.839 7.92843L71.8919 8.01332C72.2841 7.76916 72.7801 7.6438 73.3857 7.6438V7.5438V7.4438C72.7529 7.4438 72.2178 7.57485 71.7862 7.84353L71.839 7.92843ZM73.3857 7.5438V7.6438C73.9634 7.6438 74.4417 7.7675 74.826 8.00901L74.8792 7.92434L74.9324 7.83966C74.5093 7.57379 73.992 7.4438 73.3857 7.4438V7.5438ZM74.8792 7.92434L74.8263 8.00917C75.215 8.25177 75.509 8.59342 75.7087 9.0374L75.7999 8.99639L75.8911 8.95537C75.6761 8.47734 75.3564 8.10428 74.9322 7.8395L74.8792 7.92434ZM75.7999 8.99639L75.709 9.03805C75.9118 9.48052 76.015 10.0072 76.015 10.6208H76.115H76.215C76.215 9.98512 76.1081 9.42881 75.8908 8.95472L75.7999 8.99639ZM71.3521 10.6208H71.2521C71.2521 11.1374 71.3257 11.5894 71.4758 11.9747L71.569 11.9384L71.6621 11.9021C71.5231 11.5454 71.4521 11.1191 71.4521 10.6208H71.3521ZM71.569 11.9384L71.4758 11.9747C71.6269 12.3624 71.8598 12.666 72.1757 12.8804L72.2318 12.7977L72.288 12.7149C72.0092 12.5257 71.8002 12.2563 71.6621 11.9021L71.569 11.9384ZM72.2318 12.7977L72.176 12.8806C72.4966 13.0963 72.898 13.2005 73.3735 13.2005V13.1005V13.0005C72.9269 13.0005 72.5672 12.9028 72.2877 12.7147L72.2318 12.7977ZM73.3735 13.1005V13.2005C73.8514 13.2005 74.2519 13.0964 74.5675 12.8802L74.511 12.7977L74.4545 12.7152C74.1808 12.9027 73.823 13.0005 73.3735 13.0005V13.1005ZM74.511 12.7977L74.5671 12.8804C74.8832 12.6658 75.1148 12.3621 75.2632 11.9741L75.1698 11.9384L75.0764 11.9027C74.941 12.2567 74.7334 12.5258 74.4548 12.7149L74.511 12.7977ZM75.1698 11.9384L75.2632 11.9741C75.4104 11.589 75.4825 11.1372 75.4825 10.6208H75.3825H75.2825C75.2825 11.1192 75.2128 11.5458 75.0764 11.9027L75.1698 11.9384ZM75.3825 10.6208H75.4825C75.4825 9.83614 75.3177 9.20934 74.9757 8.75234L74.8956 8.81226L74.8155 8.87218C75.1227 9.28263 75.2825 9.86155 75.2825 10.6208H75.3825ZM74.8956 8.81226L74.9761 8.7529C74.6305 8.28426 74.0929 8.05757 73.3857 8.05757V8.15757V8.25757C74.0479 8.25757 74.517 8.46734 74.8151 8.87161L74.8956 8.81226ZM73.3857 8.15757V8.05757C72.9079 8.05757 72.5053 8.1602 72.1847 8.37295L72.24 8.45627L72.2953 8.53959C72.5749 8.35407 72.9361 8.25757 73.3857 8.25757V8.15757ZM72.24 8.45627L72.1847 8.37295C71.866 8.58444 71.6302 8.88511 71.4761 9.27022L71.569 9.30736L71.6618 9.3445C71.8024 8.99309 72.0139 8.72637 72.2953 8.53959L72.24 8.45627ZM71.569 9.30736L71.476 9.27058C71.3256 9.65074 71.2521 10.1017 71.2521 10.6208H71.3521H71.4521C71.4521 10.1197 71.5232 9.69505 71.662 9.34414L71.569 9.30736ZM82.1258 13.6201V13.7201H82.2258V13.6201H82.1258ZM81.3238 13.6201L81.2399 13.6746L81.2695 13.7201H81.3238V13.6201ZM78.0627 8.59539L78.1465 8.54095L78.117 8.49539H78.0627V8.59539ZM78.0299 8.59539V8.49539H77.9236L77.9301 8.6015L78.0299 8.59539ZM78.0586 9.05367L77.9588 9.06001L77.9588 9.06011L78.0586 9.05367ZM78.0831 9.59788L77.9831 9.6007L77.9832 9.60216L78.0831 9.59788ZM78.0954 13.6201V13.7201H78.1954V13.6201H78.0954ZM77.4489 13.6201H77.3489V13.7201H77.4489V13.6201ZM77.4489 7.63791V7.53791H77.3489V7.63791H77.4489ZM78.2468 7.63791L78.3307 7.58349L78.3011 7.53791H78.2468V7.63791ZM81.4957 12.6463L81.4118 12.7007L81.4413 12.7463H81.4957V12.6463ZM81.5243 12.6463V12.7463H81.6302L81.6242 12.6406L81.5243 12.6463ZM81.5039 12.2412L81.404 12.2458L81.404 12.2459L81.5039 12.2412ZM81.4793 11.6724L81.3793 11.6751L81.3794 11.6765L81.4793 11.6724ZM81.4711 7.63791V7.53791H81.3711V7.63791H81.4711ZM82.1258 7.63791H82.2258V7.53791H82.1258V7.63791ZM82.1258 13.6201V13.5201H81.3238V13.6201V13.7201H82.1258V13.6201ZM81.3238 13.6201L81.4077 13.5657L78.1465 8.54095L78.0627 8.59539L77.9788 8.64983L81.2399 13.6746L81.3238 13.6201ZM78.0627 8.59539V8.49539H78.0299V8.59539V8.69539H78.0627V8.59539ZM78.0299 8.59539L77.9301 8.6015C77.9383 8.73526 77.9478 8.8881 77.9588 9.06001L78.0586 9.05367L78.1584 9.04734C78.1475 8.87554 78.1379 8.72285 78.1297 8.58928L78.0299 8.59539ZM78.0586 9.05367L77.9588 9.06011C77.9696 9.22788 77.9777 9.40806 77.9832 9.6007L78.0831 9.59788L78.1831 9.59507C78.1776 9.40035 78.1694 9.21772 78.1584 9.04723L78.0586 9.05367ZM78.0831 9.59788L77.9832 9.60216C77.9913 9.79163 77.9954 9.98524 77.9954 10.183H78.0954H78.1954C78.1954 9.98251 78.1913 9.78603 78.183 9.5936L78.0831 9.59788ZM78.0954 10.183H77.9954V13.6201H78.0954H78.1954V10.183H78.0954ZM78.0954 13.6201V13.5201H77.4489V13.6201V13.7201H78.0954V13.6201ZM77.4489 13.6201H77.5489V7.63791H77.4489H77.3489V13.6201H77.4489ZM77.4489 7.63791V7.73791H78.2468V7.63791V7.53791H77.4489V7.63791ZM78.2468 7.63791L78.1629 7.69233L81.4118 12.7007L81.4957 12.6463L81.5796 12.5918L78.3307 7.58349L78.2468 7.63791ZM81.4957 12.6463V12.7463H81.5243V12.6463V12.5463H81.4957V12.6463ZM81.5243 12.6463L81.6242 12.6406C81.6187 12.5456 81.6119 12.411 81.6037 12.2365L81.5039 12.2412L81.404 12.2459C81.4122 12.4206 81.419 12.556 81.4245 12.652L81.5243 12.6463ZM81.5039 12.2412L81.6038 12.2366C81.5956 12.0595 81.5874 11.8701 81.5792 11.6684L81.4793 11.6724L81.3794 11.6765C81.3876 11.8785 81.3958 12.0683 81.404 12.2458L81.5039 12.2412ZM81.4793 11.6724L81.5793 11.6698C81.5738 11.4659 81.5711 11.2772 81.5711 11.1037H81.4711H81.3711C81.3711 11.2793 81.3739 11.4698 81.3793 11.6751L81.4793 11.6724ZM81.4711 11.1037H81.5711V7.63791H81.4711H81.3711V11.1037H81.4711ZM81.4711 7.63791V7.73791H82.1258V7.63791V7.53791H81.4711V7.63791ZM82.1258 7.63791H82.0258V13.6201H82.1258H82.2258V7.63791H82.1258Z" fill="white"/>
<path d="M72.1778 21.7499C71.2853 21.7519 70.4135 22.0037 69.6726 22.4734C68.9317 22.9432 68.355 23.6098 68.0154 24.3889C67.6758 25.1681 67.5886 26.0248 67.7647 26.8508C67.9409 27.6768 68.3726 28.4349 69.0051 29.0293C69.6377 29.6236 70.4427 30.0276 71.3185 30.19C72.1942 30.3524 73.1013 30.2661 73.925 29.9418C74.7488 29.6175 75.4521 29.07 75.9462 28.3683C76.4403 27.6667 76.7029 26.8425 76.7008 25.9999C76.7095 25.4379 76.5982 24.8799 76.3737 24.3593C76.1492 23.8386 75.816 23.366 75.394 22.9694C74.972 22.5729 74.4697 22.2606 73.9172 22.051C73.3647 21.8415 72.7731 21.7391 72.1778 21.7499ZM72.1778 28.5799C71.6308 28.616 71.0849 28.496 70.6111 28.2353C70.1373 27.9747 69.7576 27.5855 69.5212 27.1184C69.2848 26.6512 69.2028 26.1278 69.2857 25.6161C69.3686 25.1043 69.6127 24.628 69.9862 24.249C70.3596 23.8699 70.8453 23.6057 71.3799 23.4907C71.9146 23.3757 72.4735 23.4152 72.9841 23.604C73.4947 23.7929 73.9333 24.1223 74.2428 24.5496C74.5524 24.9769 74.7187 25.4822 74.72 25.9999C74.7371 26.3279 74.6844 26.6559 74.5651 26.9643C74.4458 27.2728 74.2622 27.5556 74.0253 27.7961C73.7884 28.0366 73.5028 28.2298 73.1855 28.3644C72.8682 28.499 72.5256 28.5723 72.1778 28.5799ZM62.3055 21.7499C61.413 21.7519 60.5412 22.0037 59.8003 22.4734C59.0594 22.9432 58.4827 23.6098 58.1431 24.3889C57.8035 25.1681 57.7163 26.0248 57.8925 26.8508C58.0686 27.6768 58.5003 28.4349 59.1328 29.0293C59.7654 29.6236 60.5704 30.0276 61.4462 30.19C62.3219 30.3524 63.229 30.2661 64.0527 29.9418C64.8765 29.6175 65.5799 29.07 66.0739 28.3683C66.568 27.6667 66.8306 26.8425 66.8285 25.9999C66.8372 25.4379 66.7259 24.8799 66.5014 24.3593C66.2769 23.8386 65.9437 23.366 65.5217 22.9694C65.0997 22.5729 64.5974 22.2606 64.0449 22.051C63.4924 21.8415 62.9008 21.7391 62.3055 21.7499ZM62.3055 28.5799C61.7585 28.616 61.2126 28.496 60.7388 28.2353C60.265 27.9747 59.8853 27.5855 59.6489 27.1184C59.4125 26.6512 59.3305 26.1278 59.4134 25.6161C59.4963 25.1043 59.7404 24.628 60.1139 24.249C60.4874 23.8699 60.973 23.6057 61.5076 23.4907C62.0423 23.3757 62.6012 23.4152 63.1118 23.604C63.6224 23.7929 64.061 24.1223 64.3705 24.5496C64.6801 24.9769 64.8464 25.4822 64.8477 25.9999C64.8648 26.3279 64.8121 26.6559 64.6928 26.9643C64.5735 27.2728 64.3899 27.5556 64.153 27.7961C63.9161 28.0366 63.6305 28.2298 63.3132 28.3644C62.9959 28.499 62.6533 28.5723 62.3055 28.5799ZM50.5689 23.0599V24.8599H55.1449C55.0732 25.7077 54.6999 26.5077 54.0857 27.1299C53.6266 27.5714 53.0745 27.9171 52.4651 28.1444C51.8557 28.3718 51.2025 28.4759 50.5477 28.4499C49.1992 28.4499 47.906 27.9442 46.9525 27.044C45.999 26.1439 45.4633 24.923 45.4633 23.6499C45.4633 22.3769 45.999 21.156 46.9525 20.2558C47.906 19.3556 49.1992 18.8499 50.5477 18.8499C51.8405 18.8318 53.0888 19.2952 54.0221 20.1399L55.3674 18.8699C54.736 18.2804 53.9864 17.8158 53.1625 17.5033C52.3385 17.1908 51.4568 17.0366 50.5689 17.0499C49.6272 17.0153 48.6878 17.1605 47.807 17.4769C46.9262 17.7932 46.1221 18.2742 45.4429 18.8909C44.7637 19.5077 44.2233 20.2475 43.8543 21.0661C43.4852 21.8847 43.2949 22.7652 43.2949 23.6549C43.2949 24.5446 43.4852 25.4251 43.8543 26.2437C44.2233 27.0623 44.7637 27.8022 45.4429 28.4189C46.1221 29.0357 46.9262 29.5166 47.807 29.833C48.6878 30.1493 49.6272 30.2945 50.5689 30.2599C51.475 30.2941 52.3785 30.1469 53.2201 29.8281C54.0617 29.5092 54.8224 29.0259 55.4521 28.4099C56.5644 27.2563 57.1571 25.7391 57.1045 24.1799C57.1083 23.8046 57.0764 23.4298 57.0092 23.0599H50.5689ZM98.564 24.4599C98.2877 23.6927 97.7711 23.0227 97.0826 22.5388C96.3941 22.0548 95.5661 21.7797 94.7082 21.7499C94.1288 21.7489 93.5553 21.86 93.0232 22.0765C92.4911 22.2929 92.0117 22.6101 91.6146 23.0085C91.2174 23.4068 90.9111 23.8778 90.7144 24.3923C90.5178 24.9068 90.435 25.454 90.4712 25.9999C90.4622 26.9128 90.7662 27.8039 91.3378 28.5402C91.9095 29.2765 92.7181 29.8184 93.6429 30.0851C94.5677 30.3517 95.5591 30.3288 96.469 30.0196C97.3788 29.7105 98.1583 29.1318 98.6911 28.3699L97.1551 27.3699C96.9262 27.7302 96.6014 28.0277 96.2131 28.2329C95.8247 28.4382 95.3863 28.544 94.9413 28.5399C94.4822 28.5578 94.0281 28.4442 93.6386 28.214C93.2492 27.9837 92.9426 27.6477 92.7592 27.2499L98.7864 24.8999L98.564 24.4599ZM92.4202 25.8799C92.3988 25.5693 92.4432 25.2578 92.5508 24.9635C92.6585 24.6693 92.8272 24.3983 93.0472 24.1664C93.2672 23.9346 93.534 23.7464 93.8319 23.6131C94.1299 23.4798 94.453 23.4039 94.7824 23.3899C95.1237 23.3703 95.4635 23.4461 95.7594 23.608C96.0552 23.7699 96.2939 24.0106 96.4454 24.2999L92.4202 25.8799ZM87.5265 29.9999H89.5073V17.4999H87.5265V29.9999ZM84.2851 22.6999H84.211C83.9151 22.3818 83.5499 22.1277 83.1404 21.9551C82.7309 21.7825 82.2867 21.6955 81.8382 21.6999C80.6807 21.7529 79.5891 22.2243 78.7897 23.0165C77.9903 23.8087 77.5444 24.8608 77.5444 25.9549C77.5444 27.049 77.9903 28.1012 78.7897 28.8933C79.5891 29.6855 80.6807 30.1569 81.8382 30.2099C82.2873 30.2184 82.7329 30.1332 83.143 29.9603C83.5532 29.7875 83.9179 29.5312 84.211 29.2099H84.2851V29.8199C84.2851 31.4499 83.3636 32.3199 81.8806 32.3199C81.3852 32.3096 80.9042 32.1606 80.4988 31.8918C80.0933 31.6229 79.7816 31.2464 79.6032 30.8099L77.8872 31.4799C78.2045 32.2322 78.7561 32.8758 79.4691 33.3258C80.1821 33.7757 81.023 34.0108 81.8806 33.9999C84.2004 33.9999 86.1177 32.7099 86.1177 29.5699V21.9999H84.2851V22.6999ZM82.0077 28.5799C81.3137 28.5391 80.6623 28.25 80.1861 27.7716C79.71 27.2932 79.4449 26.6614 79.4449 26.0049C79.4449 25.3485 79.71 24.7167 80.1861 24.2383C80.6623 23.7598 81.3137 23.4708 82.0077 23.4299C82.3469 23.4437 82.6797 23.5218 82.9863 23.6596C83.2929 23.7973 83.567 23.9918 83.7924 24.2316C84.0177 24.4714 84.1896 24.7515 84.2979 25.0553C84.4062 25.3591 84.4487 25.6803 84.4228 25.9999C84.4517 26.3206 84.4114 26.6435 84.3044 26.9491C84.1973 27.2546 84.0257 27.5365 83.8 27.7777C83.5742 28.0189 83.299 28.2143 82.9909 28.3522C82.6829 28.4901 82.3484 28.5676 82.0077 28.5799ZM107.843 17.4999H103.098V29.9999H105.078V25.2599H107.843C108.408 25.2982 108.974 25.2263 109.508 25.0487C110.042 24.871 110.531 24.5915 110.946 24.2274C111.36 23.8634 111.69 23.4227 111.916 22.9328C112.142 22.4428 112.259 21.9142 112.259 21.3799C112.259 20.8456 112.142 20.317 111.916 19.8271C111.69 19.3372 111.36 18.8965 110.946 18.5324C110.531 18.1684 110.042 17.8888 109.508 17.7112C108.974 17.5336 108.408 17.4616 107.843 17.4999ZM107.843 23.4999H105.078V19.2399H107.885C108.183 19.2399 108.478 19.2953 108.753 19.4028C109.028 19.5104 109.278 19.668 109.488 19.8667C109.699 20.0654 109.866 20.3013 109.98 20.561C110.094 20.8206 110.152 21.0989 110.152 21.3799C110.152 21.661 110.094 21.9392 109.98 22.1989C109.866 22.4585 109.699 22.6944 109.488 22.8931C109.278 23.0918 109.028 23.2495 108.753 23.357C108.478 23.4646 108.183 23.5199 107.885 23.5199L107.843 23.4999ZM120.067 21.7099C119.346 21.6679 118.627 21.8265 118 22.1659C117.373 22.5054 116.865 23.0109 116.54 23.6199L118.287 24.3099C118.464 24.0093 118.729 23.7634 119.05 23.602C119.372 23.4405 119.736 23.3703 120.099 23.3999C120.35 23.3722 120.605 23.392 120.848 23.4582C121.091 23.5245 121.318 23.6358 121.515 23.7856C121.713 23.9355 121.876 24.1209 121.997 24.3311C122.117 24.5413 122.192 24.7721 122.217 25.0099V25.1299C121.58 24.8138 120.871 24.6491 120.152 24.6499C118.266 24.6499 116.338 25.6499 116.338 27.4699C116.357 27.8568 116.458 28.2361 116.635 28.5855C116.812 28.9348 117.061 29.247 117.369 29.5035C117.676 29.7601 118.035 29.9557 118.424 30.0787C118.812 30.2018 119.224 30.2498 119.633 30.2199C120.13 30.2459 120.625 30.1466 121.068 29.9322C121.511 29.7178 121.886 29.3961 122.154 28.9999H122.217V29.9999H124.124V25.1899C124.124 22.9999 122.366 21.7299 120.109 21.7299L120.067 21.7099ZM119.823 28.5599C119.177 28.5599 118.277 28.2499 118.277 27.4999C118.277 26.4999 119.4 26.1599 120.395 26.1599C121.025 26.1453 121.646 26.2903 122.196 26.5799C122.13 27.123 121.857 27.6249 121.428 27.9926C121 28.3604 120.445 28.569 119.866 28.5799L119.823 28.5599ZM131.073 21.9999L128.806 27.4199H128.742L126.391 21.9999H124.272L127.799 29.5799L125.787 33.7899H127.852L133.276 21.9999H131.073ZM113.277 29.9999H115.247V17.4999H113.277V29.9999Z" fill="white"/>
<path d="M21.9476 19.4199L10.6665 30.7199C10.7897 31.1473 11.0154 31.5423 11.326 31.8742C11.6367 32.2062 12.024 32.4663 12.4581 32.6345C12.8921 32.8026 13.3614 32.8744 13.8295 32.8441C14.2976 32.8138 14.752 32.6824 15.1578 32.4599L27.8689 25.5399L21.9476 19.4199Z" fill="#EA4335"/>
<path d="M33.356 17.5L27.869 14.5L21.7041 19.69L27.8902 25.54L33.3454 22.54C33.8303 22.2948 34.2357 21.93 34.5183 21.4845C34.8009 21.0389 34.9501 20.5293 34.9501 20.01C34.9501 19.4907 34.8009 18.9811 34.5183 18.5355C34.2357 18.09 33.8303 17.7252 33.3454 17.48L33.356 17.5Z" fill="#FBBC04"/>
<path d="M10.6665 9.28027C10.6105 9.51648 10.5856 9.75831 10.5924 10.0003V30.0003C10.5942 30.2502 10.6298 30.4989 10.6983 30.7403L22.3502 19.7403L10.6665 9.28027Z" fill="#4285F4"/>
<path d="M22.0324 19.9996L27.8689 14.4896L15.1578 7.54965C14.6803 7.28165 14.1351 7.14002 13.5795 7.13965C12.9094 7.14146 12.2584 7.35082 11.7264 7.73558C11.1945 8.12035 10.811 8.65927 10.6348 9.26965L22.0324 19.9996Z" fill="#34A853"/>
</g>
<defs>
<clipPath id="clip0_163_4324">
<rect width="143" height="40" fill="white"/>
</clipPath>
</defs>
</svg>
