<svg width="24" height="24" viewBox="0 0 24 24" fill="none" xmlns="http://www.w3.org/2000/svg">
<path d="M6.37617 10.068C6.16342 10.6899 6.05528 11.3427 6.05617 12C6.05617 12.734 6.18817 13.437 6.43217 14.086C6.73627 14.8972 7.21396 15.6321 7.8318 16.2393C8.44964 16.8466 9.19271 17.3115 10.009 17.6015C10.8253 17.8916 11.6951 17.9998 12.5576 17.9185C13.4201 17.8372 14.2544 17.5684 15.0022 17.131H15.0032C16.1812 16.4404 17.0863 15.3661 17.5672 14.088H12.2202V10.132H21.8252C22.0736 11.4405 22.0586 12.7854 21.7812 14.088C21.3004 16.3399 20.057 18.3568 18.2612 19.798C16.4874 21.2264 14.2776 22.0035 12.0002 22C10.2831 22.001 8.59479 21.5597 7.0978 20.7187C5.60081 19.8778 4.34562 18.6655 3.45318 17.1986C2.56073 15.7317 2.0611 14.0597 2.00242 12.3437C1.94375 10.6276 2.328 8.92542 3.11817 7.401C3.96114 5.77291 5.23555 4.40796 6.80204 3.4554C8.36853 2.50284 10.1668 1.99936 12.0002 2C14.4262 2 16.6512 2.864 18.3832 4.302L15.1432 6.954C14.3842 6.48164 13.5285 6.18643 12.6397 6.09034C11.7509 5.99424 10.8519 6.09972 10.0095 6.39894C9.16706 6.69816 8.40294 7.18342 7.77391 7.81864C7.14488 8.45386 6.66712 9.2227 6.37617 10.068Z" fill="#0F62FE"/>
</svg>
