<svg width="20" height="20" viewBox="0 0 20 20" fill="none" xmlns="http://www.w3.org/2000/svg">
<path d="M16.305 10.1837H15.7006C15.6908 10.1844 15.6815 10.1886 15.6746 10.1956C15.6676 10.2025 15.6634 10.2117 15.6628 10.2215V12.1393C15.5308 12.1771 15.3983 12.196 15.2474 12.196C14.8508 12.196 14.7563 12.0733 14.7563 11.5442V10.2215C14.7557 10.2117 14.7515 10.2025 14.7445 10.1956C14.7376 10.1886 14.7283 10.1844 14.7186 10.1837H14.1146C14.1048 10.1844 14.0955 10.1886 14.0886 10.1956C14.0816 10.2025 14.0774 10.2117 14.0768 10.2215V11.6104C14.0768 12.4793 14.3694 12.8102 15.1152 12.8102C15.5401 12.8102 16.0217 12.6969 16.305 12.5929C16.3143 12.5833 16.3237 12.574 16.3237 12.5644V10.2217C16.3426 10.2029 16.3237 10.184 16.305 10.184V10.1837ZM3.50211 10.1933H2.88833C2.86944 10.1933 2.86011 10.2026 2.86011 10.2215C2.76566 10.5993 2.56744 11.2417 2.303 11.9126L1.68944 10.2122C1.67989 10.2026 1.67055 10.1933 1.661 10.1933H1.03789C1.02833 10.1933 1.019 10.2026 1.00944 10.2122C1.00011 10.2215 1.00011 10.2311 1.00944 10.2404L1.93477 12.7724C1.8526 12.9454 1.7644 13.1155 1.67033 13.2824C1.60433 13.3957 1.54766 13.5091 1.491 13.632C1.48166 13.6415 1.48166 13.6509 1.491 13.6604C1.50055 13.6697 1.50989 13.6793 1.51944 13.6793H2.18966C2.19922 13.6793 2.21811 13.6697 2.21811 13.6604C2.35748 13.3882 2.4866 13.1109 2.60522 12.8291C3.00166 11.9031 3.31322 11.034 3.54944 10.2404C3.54944 10.2311 3.54944 10.2215 3.53989 10.2122C3.521 10.1933 3.51166 10.1933 3.50211 10.1933ZM5.70211 12.1393C5.70179 12.1344 5.6997 12.1298 5.69623 12.1263C5.69275 12.1228 5.68813 12.1207 5.68322 12.1204H5.65477C5.50366 12.1771 5.22989 12.2149 5.041 12.2149C4.61633 12.2149 4.41789 12.1015 4.41789 11.4593C4.41789 10.9395 4.48411 10.7033 5.041 10.7033C5.20166 10.7033 5.34322 10.7222 5.53211 10.7789C5.551 10.7789 5.56033 10.7789 5.56989 10.76L5.81522 10.2689V10.2404C5.8149 10.2355 5.81281 10.2309 5.80934 10.2274C5.80586 10.2239 5.80124 10.2218 5.79633 10.2215C5.53609 10.1424 5.26586 10.1011 4.99389 10.0986C4.11589 10.0986 3.71922 10.5144 3.71922 11.4497C3.71922 12.3944 4.11589 12.8195 4.99389 12.8195C5.211 12.8195 5.65477 12.7724 5.86255 12.6873C5.88144 12.6777 5.89077 12.6589 5.88144 12.64L5.70211 12.1393ZM11.4519 10.1933H10.8383C10.8194 10.1933 10.8099 10.2026 10.8099 10.2215C10.7154 10.6089 10.5172 11.2417 10.2528 11.9126L9.63922 10.2122C9.62966 10.2026 9.62033 10.1933 9.61077 10.1933H8.98766C8.97833 10.1933 8.96877 10.2026 8.95944 10.2122C8.94989 10.2215 8.94989 10.2311 8.95944 10.2404L9.88455 12.7724C9.80238 12.9454 9.71418 13.1155 9.62011 13.2824C9.55411 13.3957 9.49744 13.5091 9.44077 13.632C9.43144 13.6415 9.43144 13.6509 9.44077 13.6604C9.45033 13.6697 9.45966 13.6793 9.46922 13.6793H10.1394C10.149 13.6793 10.1679 13.6697 10.1679 13.6604C10.3073 13.3882 10.4364 13.1109 10.555 12.8291C10.9421 11.9031 11.263 11.034 11.4992 10.2404C11.4992 10.2311 11.4992 10.2215 11.4897 10.2122C11.4708 10.1933 11.4614 10.1933 11.4519 10.1933ZM13.7179 10.1837H11.9334C11.9236 10.1844 11.9144 10.1886 11.9075 10.1956C11.9005 10.2025 11.8963 10.2117 11.8957 10.2215V12.7062C11.8957 12.7251 11.9146 12.744 11.9334 12.744H12.5379C12.5566 12.744 12.5757 12.7251 12.5757 12.7062V10.7789H13.5101C13.5197 10.7789 13.5386 10.7695 13.5386 10.76C13.6141 10.59 13.6801 10.4104 13.7557 10.2311V10.2026C13.7368 10.1933 13.7274 10.1837 13.7179 10.1837Z" fill="#EF3E58"/>
<path d="M4.21956 6.36795C3.35089 6.36795 3.01111 6.74573 3.01111 7.69995C3.01111 8.67306 3.35111 9.05107 4.21956 9.05107C5.09756 9.05107 5.43733 8.67306 5.43733 7.69995C5.43733 6.74573 5.09756 6.36795 4.21956 6.36795ZM4.21956 8.50307C3.82311 8.50307 3.70022 8.39907 3.70022 7.71884C3.70022 7.00107 3.83244 6.93484 4.21956 6.93484C4.61622 6.93484 4.74844 7.00084 4.74844 7.71884C4.74844 8.38973 4.62556 8.50307 4.21956 8.50307ZM7.85467 8.39906C7.85435 8.39416 7.85226 8.38953 7.84879 8.38606C7.84531 8.38258 7.84068 8.38049 7.83578 8.38018H7.80733C7.65622 8.43684 7.38244 8.47462 7.19378 8.47462C6.76889 8.47462 6.57044 8.36129 6.57044 7.71907C6.57044 7.19907 6.62711 6.96307 7.19378 6.96307C7.35422 6.96307 7.496 6.98195 7.68467 7.03862C7.70356 7.03862 7.71289 7.03862 7.72244 7.01973L7.96778 6.52862V6.50018C7.96746 6.49527 7.96537 6.49065 7.9619 6.48717C7.95842 6.48369 7.9538 6.4816 7.94889 6.48129C7.68872 6.40223 7.41857 6.36084 7.14667 6.3584C6.26844 6.3584 5.87178 6.77395 5.87178 7.70951C5.87178 8.65395 6.26844 9.07929 7.14644 9.07929C7.36356 9.07929 7.80733 9.03195 8.01511 8.94706C8.034 8.93751 8.04333 8.91862 8.034 8.89973L7.85467 8.39906ZM1.03778 6.44351C1.02798 6.44418 1.01876 6.44838 1.01181 6.45532C1.00487 6.46227 1.00067 6.47149 1 6.48129V8.96573C1 8.98484 1.01889 9.00351 1.03778 9.00351H1.64222C1.66089 9.00351 1.68 8.98484 1.68 8.96573V7.03862H2.61444C2.624 7.03862 2.64289 7.02929 2.64289 7.01973C2.71844 6.84973 2.78444 6.67018 2.86 6.49084V6.4624C2.85044 6.45284 2.84111 6.44351 2.83156 6.44351H1.03778Z" fill="#0F67B1"/>
<path fill-rule="evenodd" clip-rule="evenodd" d="M19.1279 12.48V12.4422C19.1279 12.4233 19.1279 12.3949 19.1374 12.376C19.1656 12.0264 19.1845 11.6013 19.2034 11.11V11.0722L19.2223 10.0142C19.2223 9.64578 19.213 9.28667 19.2034 8.956V8.91822L19.1374 7.65244C19.1374 7.63333 19.1374 7.60511 19.1279 7.58622V7.54844C19.1279 7.51067 19.1185 7.48222 19.1185 7.44444V7.40667C19.0901 7.03822 19.0712 6.81156 19.0619 6.79267C19.0619 6.75489 19.0523 6.71711 19.0523 6.68867V6.66044C19.0443 6.59666 19.0317 6.53353 19.0145 6.47156C19.0145 6.462 19.0145 6.45244 19.0052 6.44311C18.8448 5.67778 18.4199 4.83711 17.891 4.204C17.6834 3.95844 17.4661 3.74111 17.2397 3.57111C16.3866 2.94215 15.501 2.35874 14.5863 1.82333C13.1985 1.00133 11.9523 0.434444 11.7919 0.358889C11.7823 0.358889 11.7823 0.349556 11.7823 0.349556C11.4141 0.188889 10.9703 0.0755556 10.489 0.0284444C10.3945 0.0188889 10.3001 0.00955556 10.2056 0.00955556C10.1205 0.00955556 10.0356 0 9.95076 0H9.81854C9.16698 0.00955556 8.57232 0.132222 8.10009 0.349556C8.02454 0.378 6.76898 0.954 5.34321 1.78556L5.28654 1.81378C4.37552 2.35829 3.4902 2.9447 2.63343 3.57111C2.27476 3.83556 1.95365 4.17556 1.66098 4.61022C1.59498 4.71422 1.59498 4.95978 1.87809 4.95978H2.60521C2.91676 4.95978 2.99232 4.77089 3.34165 4.51578C3.72876 4.23244 4.49343 3.66556 5.89076 2.83422C6.90098 2.23911 7.84521 1.776 8.29832 1.55867C8.30787 1.55867 8.31721 1.54933 8.32676 1.54933C8.32676 1.54933 8.33609 1.54933 8.33609 1.54C8.33609 1.54 8.34565 1.54 8.34565 1.53044C8.35498 1.53044 8.36454 1.52111 8.36454 1.52111C8.37387 1.52111 8.38343 1.51156 8.39276 1.51156C8.50609 1.45489 8.58165 1.42644 8.58165 1.42644C8.90276 1.28489 9.35587 1.19044 9.8372 1.18089H10.0261C10.1679 1.18089 10.3094 1.19044 10.4416 1.20933C10.7343 1.24711 10.9988 1.30378 11.2159 1.39822C11.2348 1.40756 11.263 1.41711 11.2819 1.42644C12.2041 1.85552 13.1053 2.32843 13.9823 2.84356C14.8596 3.36119 15.7104 3.92249 16.5314 4.52533C16.7108 4.65756 16.8903 4.84644 17.0603 5.05422C17.485 5.60222 17.8343 6.34867 17.891 6.92489C17.891 6.93444 17.9194 7.16111 17.9477 7.54844C17.9477 7.57667 17.9477 7.59556 17.9572 7.624V7.68067C17.9572 7.71844 17.9665 7.74689 17.9665 7.78467V7.82244C17.9665 7.84133 17.9665 7.86956 17.9761 7.88844C17.9761 7.93578 17.9854 7.98289 17.9854 8.03022C17.9854 8.05867 17.9854 8.08689 17.995 8.11533V8.13422C17.995 8.172 17.995 8.20022 18.0043 8.238V8.31356C18.0681 9.44022 18.0681 10.5691 18.0043 11.6958V11.7713C18.0043 11.8091 18.0043 11.8376 17.995 11.8753V11.8942C17.995 11.9224 17.995 11.9509 17.9854 11.9791C17.9854 12.0264 17.9761 12.0738 17.9761 12.1209C17.9761 12.1493 17.9761 12.1682 17.9665 12.1871V12.2249C17.9665 12.2627 17.9572 12.2909 17.9572 12.3287V12.3856C17.9572 12.4138 17.9572 12.4422 17.9477 12.4611C17.9194 12.8484 17.891 13.0844 17.891 13.0844C17.8343 13.6609 17.485 14.4071 17.0601 14.9551C16.8903 15.1724 16.7108 15.352 16.5314 15.484C16.5221 15.484 16.2765 15.6731 15.8705 15.9564C14.4314 16.955 12.9088 17.8274 11.3196 18.564L11.2819 18.5829C11.263 18.5924 11.2348 18.6018 11.2159 18.6113C10.9988 18.6962 10.7343 18.7624 10.4416 18.8002C10.3094 18.8191 10.1679 18.8284 10.0261 18.8284H9.8372C9.35587 18.8191 8.90276 18.734 8.58165 18.5829C8.58165 18.5829 8.51565 18.5547 8.39276 18.4978C8.38343 18.4884 8.36454 18.4884 8.35498 18.4789C8.34565 18.4696 8.33609 18.4696 8.32676 18.46C8.31721 18.46 8.31721 18.4507 8.30787 18.4507C8.29832 18.4507 8.28898 18.4411 8.27965 18.4411C8.27009 18.4318 8.26076 18.4318 8.24187 18.4222H8.23232C7.43097 18.0408 6.64653 17.6247 5.88121 17.1753C4.47454 16.3533 3.71921 15.7771 3.33232 15.4936C2.98276 15.2384 2.90721 15.0496 2.59565 15.0496H1.87809C1.59498 15.0496 1.59498 15.2953 1.66098 15.3896C1.95365 15.8244 2.27476 16.1644 2.63343 16.4289C2.68076 16.4667 3.83254 17.3169 5.28676 18.1767C5.36209 18.224 5.43765 18.2711 5.52254 18.3089C6.87276 19.0836 8.03409 19.6127 8.10032 19.6504C8.56276 19.8582 9.16698 19.9811 9.80921 20H9.94121C10.0263 20 10.1112 20 10.1961 19.9904C10.2905 19.9904 10.385 19.9811 10.4794 19.9716C10.961 19.9244 11.4141 19.8111 11.7728 19.6504C11.7728 19.6504 11.7823 19.6504 11.7823 19.6411C11.9428 19.5656 13.189 18.9891 14.577 18.1767C15.2422 17.7828 15.894 17.3669 16.5314 16.9296L17.2301 16.4289C17.4568 16.2589 17.6739 16.0416 17.8817 15.796C18.4105 15.1629 18.8352 14.3222 18.9957 13.5569C18.9957 13.5476 18.9957 13.538 19.0052 13.5287C19.0145 13.4624 19.0334 13.3962 19.043 13.3398V13.3111C19.0523 13.2733 19.0523 13.2356 19.0523 13.2071C19.0523 13.1882 19.0808 12.9616 19.109 12.5931V12.5553C19.1279 12.5458 19.1279 12.5082 19.1279 12.48Z" fill="url(#paint0_linear_164_4708)"/>
<path d="M8.47794 10.1846H6.62727C6.60838 10.1846 6.59905 10.1941 6.5895 10.213C6.54238 11.0537 6.38194 11.9512 6.15527 12.6881C6.15527 12.6975 6.15527 12.707 6.16461 12.7163C6.17416 12.7259 6.1835 12.7259 6.19305 12.7259H6.82572C6.84438 12.7259 6.85394 12.7163 6.85394 12.707C7.03327 12.1403 7.17505 11.4032 7.23172 10.7797H7.83594V12.6975C7.83594 12.7163 7.85483 12.7352 7.87372 12.7352H8.47794C8.49683 12.7352 8.51572 12.7163 8.51572 12.6975V10.213C8.51572 10.2035 8.49683 10.1846 8.47794 10.1846Z" fill="#EF3E58"/>
<defs>
<linearGradient id="paint0_linear_164_4708" x1="881.596" y1="-0.18" x2="881.596" y2="2003.4" gradientUnits="userSpaceOnUse">
<stop offset="0.4" stop-color="#1466AC"/>
<stop offset="0.66" stop-color="#EF4058"/>
</linearGradient>
</defs>
</svg>
