<svg width="40" height="40" viewBox="0 0 40 40" fill="none" xmlns="http://www.w3.org/2000/svg">
<g clip-path="url(#clip0_3_260)">
<mask id="mask0_3_260" style="mask-type:luminance" maskUnits="userSpaceOnUse" x="0" y="0" width="40" height="40">
<path d="M40 0H0V40H40V0Z" fill="white"/>
</mask>
<g mask="url(#mask0_3_260)">
<path d="M24.708 19.0868H12.8906V14.4105H24.708C25.3983 14.4105 25.8783 14.5308 26.1192 14.7409C26.36 14.9511 26.5092 15.3408 26.5092 15.91V17.5891C26.5092 18.1889 26.36 18.5786 26.1192 18.7887C25.8783 18.9988 25.3983 19.0886 24.708 19.0886V19.0868ZM25.5188 10.0018H7.87891V30H12.8906V23.4938H22.1267L26.5092 30H32.1213L27.2894 23.4632C29.0708 23.1992 29.8707 22.6533 30.5304 21.7536C31.1901 20.8539 31.521 19.4155 31.521 17.4957V15.9962C31.521 14.8577 31.4004 13.958 31.1901 13.2684C30.9798 12.5788 30.6204 11.979 30.1098 11.4402C29.5705 10.9302 28.9701 10.5711 28.2493 10.3304C27.5285 10.1203 26.6279 10 25.5188 10V10.0018Z" fill="white"/>
<path d="M60 9.53674e-06C60 11.0457 51.0458 20 40 20C37.7542 20 35.5952 19.6299 33.58 18.9473C33.623 18.472 33.6421 17.9861 33.6421 17.4957V15.9962C33.6421 14.723 33.5091 13.6007 33.2191 12.6496C32.9061 11.6239 32.3697 10.7412 31.6494 9.98121L31.6094 9.93903L31.5673 9.89909C30.8 9.17336 29.9301 8.6553 28.9209 8.31837L28.8821 8.30542L28.8428 8.29397C27.8821 8.01394 26.773 7.87879 25.5186 7.87879H23.3974V7.88058H21.6125C20.5747 5.46233 20 2.79828 20 9.53674e-06C20 -11.0457 28.9543 -20 40 -20C51.0458 -20 60 -11.0457 60 9.53674e-06Z" fill="white"/>
</g>
<path d="M39.6972 0.30304H0.303223V39.697H39.6972V0.30304Z" stroke="white" stroke-width="2"/>
</g>
<defs>
<clipPath id="clip0_3_260">
<rect width="40" height="40" fill="white"/>
</clipPath>
</defs>
</svg>
