<svg width="24" height="23" viewBox="0 0 24 23" fill="none" xmlns="http://www.w3.org/2000/svg">
<path d="M18.2227 4.67383L18.5005 4.2581L18.5004 4.25809L18.2227 4.67383ZM19.3262 5.77734L19.7419 5.49956L19.7419 5.49954L19.3262 5.77734ZM19.3262 16.2227L19.7419 16.5005L19.7419 16.5004L19.3262 16.2227ZM18.2227 17.3262L18.5004 17.7419L18.5005 17.7419L18.2227 17.3262ZM14 17.998L13.9978 17.4981C13.7225 17.4993 13.5 17.7228 13.5 17.998H14ZM14 18L14.4472 18.2236C14.4819 18.1542 14.5 18.0776 14.5 18H14ZM10 18H9.5C9.5 18.0776 9.51807 18.1542 9.55279 18.2236L10 18ZM10 17.998H10.5C10.5 17.7228 10.2775 17.4993 10.0022 17.4981L10 17.998ZM5.77734 17.3262L5.49954 17.7419L5.49956 17.7419L5.77734 17.3262ZM4.67383 16.2227L4.25809 16.5004L4.2581 16.5005L4.67383 16.2227ZM4.67383 5.77734L4.2581 5.49954L4.25809 5.49956L4.67383 5.77734ZM5.77734 4.67383L5.49956 4.25809L5.49954 4.2581L5.77734 4.67383ZM13 4V4.5C14.4149 4.5 15.4385 4.50053 16.2358 4.58156C17.0247 4.66173 17.5363 4.81657 17.9449 5.08956L18.2227 4.67383L18.5004 4.25809C17.9001 3.85696 17.2048 3.67489 16.3369 3.58668C15.4773 3.49932 14.394 3.5 13 3.5V4ZM18.2227 4.67383L17.9449 5.08955C18.3269 5.34487 18.6551 5.67306 18.9104 6.05514L19.3262 5.77734L19.7419 5.49954C19.4136 5.00829 18.9917 4.58637 18.5005 4.2581L18.2227 4.67383ZM19.3262 5.77734L18.9104 6.05513C19.1834 6.46369 19.3383 6.97528 19.4184 7.76421C19.4995 8.56149 19.5 9.58511 19.5 11H20H20.5C20.5 9.60597 20.5007 8.5227 20.4133 7.66311C20.3251 6.79517 20.143 6.0999 19.7419 5.49956L19.3262 5.77734ZM20 11H19.5C19.5 12.4149 19.4995 13.4385 19.4184 14.2358C19.3383 15.0247 19.1834 15.5363 18.9104 15.9449L19.3262 16.2227L19.7419 16.5004C20.143 15.9001 20.3251 15.2048 20.4133 14.3369C20.5007 13.4773 20.5 12.394 20.5 11H20ZM19.3262 16.2227L18.9104 15.9449C18.6551 16.3269 18.3269 16.6551 17.9449 16.9104L18.2227 17.3262L18.5005 17.7419C18.9917 17.4136 19.4136 16.9917 19.7419 16.5005L19.3262 16.2227ZM18.2227 17.3262L17.9449 16.9104C17.588 17.1489 17.1521 17.2972 16.5217 17.3841C15.8832 17.4721 15.0791 17.4933 13.9978 17.4981L14 17.998L14.0022 18.498C15.0786 18.4933 15.9452 18.4731 16.6583 18.3747C17.3794 18.2753 17.976 18.0923 18.5004 17.7419L18.2227 17.3262ZM14 17.998H13.5V18H14H14.5V17.998H14ZM14 18L13.5528 17.7764L12.4473 19.9873L12.8945 20.2109L13.3417 20.4345L14.4472 18.2236L14 18ZM12.8945 20.2109L12.4473 19.9873C12.2631 20.3559 11.7369 20.3559 11.5527 19.9873L11.1055 20.2109L10.6583 20.4345C11.211 21.5401 12.789 21.5401 13.3417 20.4345L12.8945 20.2109ZM11.1055 20.2109L11.5527 19.9873L10.4472 17.7764L10 18L9.55279 18.2236L10.6583 20.4345L11.1055 20.2109ZM10 18H10.5V17.998H10H9.5V18H10ZM10 17.998L10.0022 17.4981C8.92086 17.4933 8.11683 17.4721 7.47834 17.3841C6.84788 17.2972 6.41203 17.1489 6.05513 16.9104L5.77734 17.3262L5.49956 17.7419C6.02401 18.0923 6.62064 18.2753 7.34174 18.3747C8.05482 18.4731 8.92144 18.4933 9.99782 18.498L10 17.998ZM5.77734 17.3262L6.05514 16.9104C5.67306 16.6551 5.34487 16.3269 5.08955 15.9449L4.67383 16.2227L4.2581 16.5005C4.58637 16.9917 5.00829 17.4136 5.49954 17.7419L5.77734 17.3262ZM4.67383 16.2227L5.08956 15.9449C4.81657 15.5363 4.66173 15.0247 4.58156 14.2358C4.50053 13.4385 4.5 12.4149 4.5 11H4H3.5C3.5 12.394 3.49932 13.4773 3.58668 14.3369C3.67489 15.2048 3.85696 15.9001 4.25809 16.5004L4.67383 16.2227ZM4 11H4.5C4.5 9.58511 4.50053 8.56149 4.58156 7.76421C4.66173 6.97528 4.81657 6.46369 5.08956 6.05513L4.67383 5.77734L4.25809 5.49956C3.85696 6.0999 3.67489 6.79517 3.58668 7.66311C3.49932 8.5227 3.5 9.60597 3.5 11H4ZM4.67383 5.77734L5.08955 6.05514C5.34487 5.67306 5.67306 5.34487 6.05514 5.08955L5.77734 4.67383L5.49954 4.2581C5.00829 4.58637 4.58637 5.00829 4.2581 5.49954L4.67383 5.77734ZM5.77734 4.67383L6.05513 5.08956C6.46369 4.81657 6.97528 4.66173 7.76421 4.58156C8.56149 4.50053 9.58511 4.5 11 4.5V4V3.5C9.60597 3.5 8.5227 3.49932 7.66311 3.58668C6.79517 3.67489 6.0999 3.85696 5.49956 4.25809L5.77734 4.67383ZM11 4V4.5H13V4V3.5H11V4Z" fill="white"/>
<circle cx="16" cy="11" r="1" fill="white"/>
<circle cx="12" cy="11" r="1" fill="white"/>
<circle cx="8" cy="11" r="1" fill="white"/>
</svg>
