<svg width="25" height="25" viewBox="0 0 25 25" fill="none" xmlns="http://www.w3.org/2000/svg">
<path fill-rule="evenodd" clip-rule="evenodd" d="M3.45833 3.45833C2 4.93055 2 7.28472 2 12V12.8333C2 17.5417 2 19.8958 3.45833 21.375C4.93055 22.8333 7.28472 22.8333 12 22.8333H12.8333C17.5417 22.8333 19.8958 22.8333 21.375 21.375C22.8333 19.9028 22.8333 17.5486 22.8333 12.8333V12C22.8333 7.29167 22.8333 4.9375 21.375 3.45833C19.9028 2 17.5486 2 12.8333 2H12C7.29167 2 4.9375 2 3.45833 3.45833ZM5.51389 8.34028C5.625 13.757 8.33333 17.007 13.0833 17.007H13.3611V13.9097C15.1042 14.0833 16.4236 15.3611 16.9514 17.007H19.4167C19.1639 16.0718 18.7155 15.2007 18.1015 14.4514C17.4874 13.7021 16.7215 13.0915 15.8542 12.6597C16.6314 12.1865 17.3026 11.5579 17.8259 10.8135C18.3493 10.0692 18.7135 9.22484 18.8958 8.33333H16.6597C16.1736 10.0556 14.7292 11.618 13.3611 11.7639V8.34028H11.118V14.3403C9.72917 13.993 7.97917 12.3125 7.90277 8.34028H5.51389Z" fill="#0066CC"/>
</svg>
