<svg width="50" height="50" viewBox="0 0 50 50" fill="none" xmlns="http://www.w3.org/2000/svg">
<path fill-rule="evenodd" clip-rule="evenodd" d="M7.08317 7.08335C4.1665 10.0278 4.1665 14.7361 4.1665 24.1667V25.8334C4.1665 35.25 4.1665 39.9584 7.08317 42.9167C10.0276 45.8334 14.7359 45.8334 24.1665 45.8334H25.8332C35.2498 45.8334 39.9582 45.8334 42.9165 42.9167C45.8332 39.9723 45.8332 35.264 45.8332 25.8334V24.1667C45.8332 14.75 45.8332 10.0417 42.9165 7.08335C39.9721 4.16669 35.2638 4.16669 25.8332 4.16669H24.1665C14.7498 4.16669 10.0415 4.16669 7.08317 7.08335ZM11.1943 16.8472C11.4165 27.6806 16.8332 34.1806 26.3332 34.1806H26.8888V27.9861C30.3748 28.3334 33.0138 30.889 34.0692 34.1806H38.9998C38.4942 32.3102 37.5975 30.5681 36.3694 29.0694C35.1413 27.5709 33.6094 26.3496 31.8748 25.4861C33.4292 24.5396 34.7717 23.2825 35.8184 21.7938C36.865 20.305 37.5936 18.6164 37.9582 16.8334H33.4859C32.5138 20.2778 29.6248 23.4027 26.8888 23.6944V16.8472H22.4025V28.8473C19.6248 28.1527 16.1248 24.7917 15.972 16.8472H11.1943Z" fill="white"/>
</svg>
